<?xml version="1.0" encoding="utf-8"?>
<!-- Generator: Adobe Illustrator 25.2.3, SVG Export Plug-In . SVG Version: 6.00 Build 0)  -->
<svg version="1.1" id="레이어_1" xmlns="http://www.w3.org/2000/svg" xmlns:xlink="http://www.w3.org/1999/xlink" x="0px"
	 y="0px" viewBox="0 0 500 500" style="enable-background:new 0 0 500 500;" xml:space="preserve">
<style type="text/css">
	.st0{fill:none;stroke:#FFFFFF;stroke-width:17;stroke-linecap:round;stroke-linejoin:round;stroke-miterlimit:10;}
</style>
<g>
	<g>
		<circle class="st0" cx="250" cy="250" r="198.16"/>
	</g>
	<path class="st0" d="M98.92,124.44c0.2,16.38,7.39,29.47,24.66,31.07c12.65,1.97,25.29,3.94,37.94,5.91
		c3.97,0.62,8.33,1.44,10.66,4.11c2.07,2.37,1.94,5.53,1.76,8.44c-0.62,10.24-0.52,21.08,5.77,29.97
		c6.29,8.89,20.84,14.73,32.01,9.94c12.73-5.46,15.85-19.88,13.41-31.39c-2.08-9.86-0.97-17.53,7.52-23.36c0,0,7.51-10.97,15.4-1.15
		c7.88,9.82,16.01,9.26,29.68-1.92c14.02-11.47-14.41-19.64-7.76-31.31c8.13-8.9,20.69-0.31,26.6-5.52
		c7.35-6.49,5.22-12.42,0.01-20.04c-15.9-23.24,15.14-21.4-0.38-40.43"/>
	<path class="st0" d="M365.57,409.93c-14.55-12.39-19.49-38.96-8.68-54.29c8.72-12.38,24-18.14,34.35-29.14
		c10.35-10.99,12.18-33.54-2.21-38.69c-4.37-1.57-17.89-0.1-22.49-0.15"/>
	<path class="st0" d="M337.49,224.12c0,0-31.96-38.35,6.39-46.88s38.35-12.78,36.22-31.96s17.05-19.18,17.05-19.18"/>
	<g>
		<g>
			<path class="st0" d="M221.09,352.45c-62.79,54.45-123.5,82.98-149.12,57.37c-13.2-13.2-13.4-37.1-3.03-65.76"/>
		</g>
		<g>
			<path class="st0" d="M386.18,224.97c0,0-22.13,92.78-71.36,130.77c-44.99,34.72-73.91,23.15-94.13-3.06s-24.08-57.11,20.9-91.83
				C296.76,218.28,383.39,225,386.18,224.97z"/>
			<line class="st0" x1="220.69" y1="352.69" x2="340.12" y2="260.52"/>
			<line class="st0" x1="258.11" y1="320.5" x2="258.18" y2="254.6"/>
			<line class="st0" x1="287.14" y1="301.21" x2="338.28" y2="315.91"/>
		</g>
		<g>
			<g>
				<path class="st0" d="M154.72,373.54c0,0,59.45-51.52-21.43-123.71C133.29,249.84,72.44,328.41,154.72,373.54z"/>
			</g>
			<path class="st0" d="M154.78,396.18c0,0-13.21-84.09-17.12-112.12"/>
		</g>
	</g>
</g>
</svg>
