<?xml version="1.0" encoding="utf-8"?>
<!-- Generator: Adobe Illustrator 25.2.1, SVG Export Plug-In . SVG Version: 6.00 Build 0)  -->
<svg version="1.1" id="레이어_1" xmlns="http://www.w3.org/2000/svg" xmlns:xlink="http://www.w3.org/1999/xlink" x="0px"
	 y="0px" viewBox="0 0 500 500" style="enable-background:new 0 0 500 500;" xml:space="preserve">
<style type="text/css">
	.st0{fill:none;stroke:#FFFFFF;stroke-width:19;stroke-linecap:round;stroke-linejoin:round;stroke-miterlimit:10;}
</style>
<g>
	<path class="st0" d="M218.7,420.4c0,17.2,14,31.1,31.3,31.1s31.3-13.9,31.3-31.1"/>
	<path class="st0" d="M295.6,358.4c7.2,0,13.1-5.9,13.1-13.1v-26.1c0-1.1-0.4-2.2-0.7-3.2c32.2-19.5,53.8-54.6,53.8-94.9
		c0-61.4-50.1-111.2-111.8-111.2s-111.8,49.8-111.8,111.2c0,40.2,21.6,75.4,53.8,94.9c-0.3,1.1-0.7,2.1-0.7,3.2v26.1
		c0,7.2,5.9,13.1,13.1,13.1"/>
	<path class="st0" d="M308.7,379.2v-7.7c0-7.2-5.9-13.1-13.1-13.1h-91.1c-7.2,0-13.1,5.9-13.1,13.1v7.7c0,4.2,2.2,7.8,5.3,10.2
		c-3.1,2.4-5.3,6-5.3,10.2v7.7c0,7.2,5.9,13.1,13.1,13.1h91.1c7.2,0,13.1-5.9,13.1-13.1v-7.7c0-4.2-2.2-7.8-5.3-10.2
		C306.5,387,308.7,383.4,308.7,379.2z"/>
	<line class="st0" x1="197.8" y1="389.4" x2="275.9" y2="389.4"/>
	<g>
		<line class="st0" x1="250" y1="48.5" x2="250" y2="79.3"/>
		<line class="st0" x1="332.9" y1="70.6" x2="317.5" y2="97.3"/>
		<line class="st0" x1="167.1" y1="70.6" x2="182.6" y2="97.3"/>
	</g>
</g>
</svg>
