<?xml version="1.0" encoding="utf-8"?>
<!-- Generator: Adobe Illustrator 25.2.1, SVG Export Plug-In . SVG Version: 6.00 Build 0)  -->
<svg version="1.1" id="레이어_1" xmlns="http://www.w3.org/2000/svg" xmlns:xlink="http://www.w3.org/1999/xlink" x="0px"
	 y="0px" viewBox="0 0 500 500" style="enable-background:new 0 0 500 500;" xml:space="preserve">
<style type="text/css">
	.st0{fill:#FFFFFF;}
</style>
<g>
	<path class="st0" d="M415.1,354.3c13.5,0,24.6-11,24.6-24.6V129.6h16.5c3,0,5.5-2.5,5.5-5.5V81c0-13.5-11-24.5-24.5-24.5H62.7
		c-13.5,0-24.5,11-24.5,24.6v43.1c0,3,2.5,5.5,5.5,5.5h3h13.5v200.1c0,13.5,11,24.6,24.5,24.6h154.7v68.2H45.2c-3,0-5.5,2.5-5.5,5.5
		v9.9c0,3,2.5,5.5,5.5,5.5h409.5c3,0,5.5-2.5,5.5-5.5v-10c0-3-2.5-5.5-5.5-5.5H260.4v-68.2H415.1z M59.1,81.1c0-2,1.6-3.6,3.6-3.6
		h374.4c2,0,3.6,1.6,3.6,3.6v27.6h-6.6H65.6H59V81.1H59.1z M84.7,333.4c-2,0-3.6-1.6-3.6-3.6V129.6h2.4h335.3v200.1
		c0,2-1.6,3.6-3.6,3.6L84.7,333.4L84.7,333.4z"/>
	<path class="st0" d="M369.9,246.2c-2.6,0-5.2,0.5-7.5,1.5l-36.4-40.4c1.4-2.7,2.2-5.7,2.2-8.9c0-10.6-8.6-19.3-19.3-19.3
		c-10.7,0-19.3,8.6-19.3,19.3c0,2.2,0.4,4.4,1.1,6.4l-34.1,24.7c-2.4-1-5-1.6-7.7-1.6c-1.3,0-2.5,0.1-3.8,0.4L208,174.9
		c1.4-2.6,2.1-5.6,2.1-8.8c0-10.6-8.6-19.3-19.3-19.3c-10.6,0-19.3,8.6-19.3,19.3c0,4.8,1.8,9.1,4.6,12.5L132,277.9
		c-0.4,0-0.8-0.1-1.2-0.1c-10.6,0-19.3,8.6-19.3,19.3c0,10.6,8.6,19.3,19.3,19.3c10.6,0,19.3-8.6,19.3-19.3c0-4.4-1.5-8.5-4-11.7
		l44.5-100c0.1,0,0.1,0,0.2,0c1.6,0,3.1-0.2,4.6-0.6l36.6,52.8c-1.6,2.8-2.6,6.1-2.6,9.6c0,10.6,8.6,19.3,19.3,19.3
		c10.6,0,19.3-8.6,19.3-19.3c0-2-0.3-3.9-0.9-5.8l34.5-25.1c2.2,0.9,4.5,1.3,7,1.3c1.6,0,3.1-0.2,4.5-0.6l38.1,42.4
		c-0.6,1.9-1,3.9-1,6c0,10.6,8.6,19.3,19.3,19.3c10.7,0,19.3-8.6,19.3-19.3C388.8,254.7,380.4,246.2,369.9,246.2z M131.1,301.4
		c-2.4,0-4.4-2-4.4-4.4c0-2.4,2-4.4,4.4-4.4c2.4,0,4.4,2,4.4,4.4C135.4,299.4,133.4,301.4,131.1,301.4z M191.1,170.4
		c-2.4,0-4.4-2-4.4-4.4c0-2.4,2-4.4,4.4-4.4c2.4,0,4.4,2,4.4,4.4C195.4,168.4,193.4,170.4,191.1,170.4z M248.9,251.5
		c-2.4,0-4.4-2-4.4-4.4c0-2.4,2-4.4,4.4-4.4c2.4,0,4.4,2,4.4,4.4C253.4,249.5,251.4,251.5,248.9,251.5z M308.9,202.7
		c-2.4,0-4.4-2-4.4-4.4c0-2.4,2-4.4,4.4-4.4c2.4,0,4.4,2,4.4,4.4C313.2,200.7,311.2,202.7,308.9,202.7z M369.9,269.8
		c-2.4,0-4.4-2-4.4-4.4c0-2.4,2-4.4,4.4-4.4c2.4,0,4.4,2,4.4,4.4C374.2,267.8,372.2,269.8,369.9,269.8z"/>
</g>
</svg>
