<?xml version="1.0" encoding="utf-8"?>
<!-- Generator: Adobe Illustrator 25.2.3, SVG Export Plug-In . SVG Version: 6.00 Build 0)  -->
<svg version="1.1" id="레이어_1" xmlns="http://www.w3.org/2000/svg" xmlns:xlink="http://www.w3.org/1999/xlink" x="0px"
	 y="0px" viewBox="0 0 500 500" style="enable-background:new 0 0 500 500;" xml:space="preserve">
<style type="text/css">
	.st0{fill:none;stroke:#FFFFFF;stroke-width:17;stroke-linecap:round;stroke-linejoin:round;stroke-miterlimit:10;}
</style>
<g>
	<g>
		<g>
			<path class="st0" d="M408.52,404.73c-52.63,52.63-155.58,35.02-155.58,35.02s-17.61-102.95,35.02-155.58
				s155.58-35.02,155.58-35.02S461.15,352.1,408.52,404.73z"/>
			<line class="st0" x1="443.54" y1="249.15" x2="252.94" y2="439.76"/>
			<line class="st0" x1="381.05" y1="311.65" x2="445.43" y2="311.65"/>
			<line class="st0" x1="345.2" y1="347.5" x2="345.2" y2="253.45"/>
			<line class="st0" x1="304.5" y1="388.19" x2="413.23" y2="400.02"/>
		</g>
		<g>
			<path class="st0" d="M91.48,404.73c52.63,52.63,155.58,35.02,155.58,35.02s17.61-102.95-35.02-155.58S56.46,249.15,56.46,249.15
				S38.85,352.1,91.48,404.73z"/>
			<line class="st0" x1="56.46" y1="249.15" x2="247.06" y2="439.76"/>
			<line class="st0" x1="118.95" y1="311.65" x2="54.57" y2="311.65"/>
			<line class="st0" x1="154.8" y1="347.5" x2="154.8" y2="253.45"/>
			<line class="st0" x1="195.5" y1="388.19" x2="86.77" y2="400.02"/>
		</g>
	</g>
	<g>
		<polyline class="st0" points="196.26,141.46 147.8,141.46 147.8,217.1 195.87,217.1 		"/>
		<line class="st0" x1="147.8" y1="179.18" x2="193.18" y2="179.18"/>
		<path class="st0" d="M352.2,179.18c0,20.89-14.81,37.92-33.08,37.92c-18.27,0-33.08-17.03-33.08-37.92s14.81-37.71,33.08-37.71
			C337.39,141.46,352.2,158.29,352.2,179.18z"/>
		<path class="st0" d="M267.52,206.02c-5.99,6.84-14.26,11.08-23.39,11.08c-18.27,0-33.08-17.03-33.08-37.92
			s14.81-37.71,33.08-37.71c9.1,0,17.41,4.2,23.39,11"/>
	</g>
	<g>
		<line class="st0" x1="250" y1="57.41" x2="250" y2="87.88"/>
		<line class="st0" x1="331.57" y1="79.27" x2="316.33" y2="105.66"/>
		<line class="st0" x1="168.43" y1="79.27" x2="183.67" y2="105.66"/>
	</g>
</g>
</svg>
