<?xml version="1.0" encoding="utf-8"?>
<!-- Generator: Adobe Illustrator 25.2.3, SVG Export Plug-In . SVG Version: 6.00 Build 0)  -->
<svg version="1.1" id="레이어_1" xmlns="http://www.w3.org/2000/svg" xmlns:xlink="http://www.w3.org/1999/xlink" x="0px"
	 y="0px" viewBox="0 0 500 500" style="enable-background:new 0 0 500 500;" xml:space="preserve">
<style type="text/css">
	.st0{fill:#FFFFFF;stroke:#FFFFFF;stroke-width:7;stroke-miterlimit:10;}
</style>
<g>
	<g>
		<path class="st0" d="M413.49,458.11H86.51c-3.59,0-6.51-2.92-6.51-6.51c0-72.02,47.5-134.3,115.22-154.25
			c-28.75-18.43-46.55-50.27-46.55-85.25c0-5.92,0.58-12.02,1.7-18.13c0.64-3.53,4.04-5.89,7.58-5.22c3.54,0.65,5.87,4.04,5.22,7.58
			c-0.98,5.34-1.48,10.64-1.48,15.77c0,35.78,21.38,67.8,54.47,81.56c2.67,1.11,4.28,3.84,3.97,6.71s-2.48,5.2-5.32,5.7
			c-68.42,12.25-118.66,70.15-121.64,139.01h313.68c-2.98-68.86-53.21-126.77-121.62-139.01c-2.85-0.51-5.02-2.83-5.32-5.7
			c-0.31-2.87,1.3-5.6,3.97-6.71c33.09-13.76,54.47-45.78,54.47-81.56c0-5.13-0.5-10.43-1.48-15.77c-0.65-3.53,1.68-6.92,5.22-7.58
			c3.53-0.67,6.93,1.69,7.58,5.22c1.13,6.11,1.7,12.21,1.7,18.13c0,34.98-17.81,66.81-46.55,85.24C372.5,317.3,420,379.58,420,451.6
			C420,455.19,417.08,458.11,413.49,458.11z"/>
	</g>
	<g>
		<path class="st0" d="M355.73,201.66H144.27c-3.6,0-6.52-2.92-6.52-6.51v-36c0-3.59,2.92-6.51,6.52-6.51h9.01
			c2.91-43.11,34.56-79.72,77.39-88.37c3.45-0.69,6.96,1.56,7.68,5.09c0.71,3.52-1.57,6.96-5.1,7.67
			c-38.91,7.86-67.15,42.39-67.15,82.12c0,3.59-2.92,6.51-6.52,6.51h-8.79v22.99h198.42v-22.99h-8.79c-3.6,0-6.52-2.92-6.52-6.51
			c0-39.72-28.24-74.26-67.16-82.12c-3.53-0.71-5.81-4.15-5.1-7.67c0.71-3.53,4.21-5.77,7.68-5.09
			c42.83,8.65,74.48,45.26,77.4,88.37h9.01c3.6,0,6.52,2.92,6.52,6.51v36C362.24,198.74,359.33,201.66,355.73,201.66z"/>
	</g>
	<g>
		<path class="st0" d="M268.01,145.5c-3.59,0-6.51-2.92-6.51-6.51V54.91h-23v84.08c0,3.59-2.92,6.51-6.51,6.51s-6.51-2.92-6.51-6.51
			V48.4c0-3.59,2.92-6.51,6.51-6.51h36.02c3.59,0,6.51,2.92,6.51,6.51v90.59C274.52,142.58,271.6,145.5,268.01,145.5z"/>
	</g>
</g>
</svg>
